# xmcd
#
# Track frame offsets: 
#        150
#        18166
#        36689
#        54269
#        76266
#        101983
#        125152
#        133571
#        155512
#        173066
#        193775
#
# Disc length: 2779 seconds
#
# Revision: 0
# Processed by: cddbd v1.5.2PL0 Copyright (c) Steve Scherf et al.
# Submitted via: ExactAudioCopy v1.3
#
DISCID=940ad90b
DTITLE=Goodnight Texas - Conductor
DYEAR=2019
DGENRE=Country
TTITLE0=Keep Movin'
TTITLE1=Long Shot
TTITLE2=Takin' Your Word for It
TTITLE3=Outrage for the Execution of Willie McGee
TTITLE4=End of the Road
TTITLE5=Tucumcari
TTITLE6=Cassie Come Over
TTITLE7=Laramie
TTITLE8=Mona Take Me Home
TTITLE9=Barstow
TTITLE10=Homesick
EXTD=
EXTT0=
EXTT1=
EXTT2=
EXTT3=
EXTT4=
EXTT5=
EXTT6=
EXTT7=
EXTT8=
EXTT9=
EXTT10=
PLAYORDER=
